# xmcd CD database file
#
# Track frame offsets:
#	150
#	15994
#	34857
#	46384
#	62513
#	76716
#	89912
#	102089
#	119320
#	132480
#	147979
#	161209
#
# Disc length: 2337 seconds
#
# Revision: 0
# Processed by: cddbd v1.5.2PL0 Copyright (c) Steve Scherf et al.
# Submitted via: ACXtractor (MTCDDB.DLL V2003.12.21)
#
DISCID=9d091f0c
DTITLE=Shaza Leigh - Just a Dream Away
DYEAR=2013
DGENRE=Country
TTITLE0=Spirit of Australia
TTITLE1=Just a Dream Away
TTITLE2=Try a Little Kindness
TTITLE3=Celtic Blood
TTITLE4=Four Strong Winds
TTITLE5=Please Say Hi to Grandad
TTITLE6=Every Second
TTITLE7=Fernando
TTITLE8=Could I have This Dance
TTITLE9=I Won't Take Down Your Picture
TTITLE10=Imagine
TTITLE11=I Am Australian
EXTD=ID3G:   2 YEAR: 2013
EXTT0=
EXTT1=
EXTT2=
EXTT3=
EXTT4=
EXTT5=
EXTT6=
EXTT7=
EXTT8=
EXTT9=
EXTT10=
EXTT11=
PLAYORDER=
